HIERARCHY
ROOT Hips
{
	OFFSET -0.001795 -0.223333 0.028219
	CHANNELS 6 Xposition Yposition Zposition Zrotation Yrotation Xrotation 
	JOINT LeftUpLeg
	{
		OFFSET 0.069520 -0.091406 -0.006815
		CHANNELS 3 Zrotation Yrotation Xrotation
		JOINT LeftLeg
		{
			OFFSET 0.034277 -0.375199 -0.004496
			CHANNELS 3 Zrotation Yrotation Xrotation
			JOINT LeftFoot
			{
				OFFSET -0.013596 -0.397961 -0.043693
				CHANNELS 3 Zrotation Yrotation Xrotation
				JOINT LeftToe
				{
					OFFSET 0.026358 -0.055791 0.119288
					CHANNELS 3 Zrotation Yrotation Xrotation
					End Site
					{
						OFFSET 0.000000 0.000000 0.000000
					}
				}
			}
		}
	}
	JOINT RightUpLeg
	{
		OFFSET -0.067670 -0.090522 -0.004320
		CHANNELS 3 Zrotation Yrotation Xrotation
		JOINT RightLeg
		{
			OFFSET -0.038290 -0.382569 -0.008850
			CHANNELS 3 Zrotation Yrotation Xrotation
			JOINT RightFoot
			{
				OFFSET 0.015774 -0.398415 -0.042312
				CHANNELS 3 Zrotation Yrotation Xrotation
				JOINT RightToe
				{
					OFFSET -0.025372 -0.048144 0.123348
					CHANNELS 3 Zrotation Yrotation Xrotation
					End Site
					{
						OFFSET 0.000000 0.000000 0.000000
					}
				}
			}
		}
	}
	JOINT Spine
	{
		OFFSET -0.002533 0.108963 -0.026696
		CHANNELS 3 Zrotation Yrotation Xrotation
		JOINT Spine1
		{
			OFFSET 0.005487 0.135180 0.001092
			CHANNELS 3 Zrotation Yrotation Xrotation
			JOINT Spine2
			{
				OFFSET 0.001457 0.052922 0.025425
				CHANNELS 3 Zrotation Yrotation Xrotation
				JOINT Neck
				{
					OFFSET -0.002778 0.213870 -0.042857
					CHANNELS 3 Zrotation Yrotation Xrotation
					JOINT Head
					{
						OFFSET 0.005152 0.064970 0.051349
						CHANNELS 3 Zrotation Yrotation Xrotation
						End Site
						{
							OFFSET 0.000000 0.000000 0.000000
						}
					}
				}
				JOINT LeftShoulder
				{
					OFFSET 0.078845 0.121749 -0.034090
					CHANNELS 3 Zrotation Yrotation Xrotation
					JOINT LeftArm
					{
						OFFSET 0.090977 0.030469 -0.008868
						CHANNELS 3 Zrotation Yrotation Xrotation
						JOINT LeftForeArm
						{
							OFFSET 0.259612 -0.012772 -0.027456
							CHANNELS 3 Zrotation Yrotation Xrotation
							JOINT LeftHand
							{
								OFFSET 0.249234 0.008986 -0.001171
								CHANNELS 3 Zrotation Yrotation Xrotation
								End Site
								{
									OFFSET 0.000000 0.000000 0.000000
								}
							}
						}
					}
				}
				JOINT RightShoulder
				{
					OFFSET -0.081759 0.118833 -0.038615
					CHANNELS 3 Zrotation Yrotation Xrotation
					JOINT RightArm
					{
						OFFSET -0.096012 0.032551 -0.009143
						CHANNELS 3 Zrotation Yrotation Xrotation
						JOINT RightForeArm
						{
							OFFSET -0.253742 -0.013329 -0.021401
							CHANNELS 3 Zrotation Yrotation Xrotation
							JOINT RightHand
							{
								OFFSET -0.255298 0.007772 -0.005559
								CHANNELS 3 Zrotation Yrotation Xrotation
								End Site
								{
									OFFSET 0.000000 0.000000 0.000000
								}
							}
						}
					}
				}
			}
		}
	}
}
MOTION
Frames: 14
Frame Time: 0.050000
0.098920 1.002960 0.084643 -2.806196 6.557405 1.774727 0.998726 1.192963 19.345500 2.102947 -3.147240 35.669038 -5.066025 -0.239495 18.003141 0.000000 0.000000 0.000000 5.570298 3.229553 -24.481544 3.984561 -0.765985 20.960525 -6.430811 -16.944243 37.115277 0.000000 0.000000 0.000000 -4.360302 -0.055071 11.200365 10.665493 -7.883579 13.821298 2.740234 -11.894591 -17.529095 -13.594048 9.775722 -1.616285 0.000000 0.000000 0.000000 -26.287954 2.741387 -1.925275 -26.436592 -9.955324 -0.887273 -135.120395 -51.606710 109.144952 0.000000 0.000000 0.000000 7.743531 -2.638729 -2.845767 25.728718 -31.762290 -7.456699 81.194299 39.989432 32.144401 0.000000 0.000000 0.000000 
0.098125 0.958856 0.090689 -2.172676 6.634332 -0.703991 3.470305 0.567141 14.885655 -1.168800 -4.212622 60.789990 -3.253234 4.227328 24.190087 0.000000 0.000000 0.000000 6.547877 3.137362 -22.060066 5.835286 -1.892104 30.610314 -10.910181 -21.831528 41.910480 0.000000 0.000000 0.000000 -3.538253 -0.228362 13.574706 9.146008 -6.991340 14.142556 1.106963 -9.058339 -15.254948 -13.439968 9.049812 -5.702481 0.000000 0.000000 0.000000 -26.870628 3.754965 -3.646565 -25.681391 -5.222023 -1.527080 -126.425584 -47.584866 89.755575 0.000000 0.000000 0.000000 13.127971 -2.300650 -3.694126 27.790197 -29.619551 -7.482111 79.489841 47.608991 39.345897 0.000000 0.000000 0.000000 
0.095899 0.908231 0.085382 -2.924018 4.253904 -3.894828 5.915431 0.150503 7.595545 -4.744047 -1.937391 82.635891 1.569252 7.470486 12.941101 0.000000 0.000000 0.000000 10.492756 3.411397 -18.816205 3.691801 -0.918908 36.939591 -18.271139 -29.101154 43.717272 0.000000 0.000000 0.000000 -3.526741 -0.334587 17.893898 5.961779 -4.704168 14.233526 2.962670 -2.314904 -13.996950 -12.561059 8.065923 -10.090965 0.000000 0.000000 0.000000 -28.729514 3.657305 -5.447398 -22.352024 2.326810 -2.203072 -116.277660 -47.769255 75.503722 0.000000 0.000000 0.000000 17.947488 -0.966944 -3.129591 30.460882 -22.146629 -6.580310 81.108201 58.282888 51.946352 0.000000 0.000000 0.000000 
0.096313 0.888021 0.071974 -2.643271 1.194192 -5.142452 5.694550 -0.355431 -7.946869 -7.113349 3.298390 96.888476 5.832084 12.945446 4.702747 0.000000 0.000000 0.000000 11.451871 2.126647 -11.151730 1.948792 0.259240 26.627759 -20.123024 -36.729563 20.232648 0.000000 0.000000 0.000000 -3.753483 -0.296753 22.940854 4.106617 -3.006475 11.784144 1.631408 4.604179 -12.408459 -13.104118 8.374318 -12.187547 0.000000 0.000000 0.000000 -26.560113 4.078659 -7.223514 -22.103721 8.880257 -2.851329 -107.254765 -45.825542 61.753369 0.000000 0.000000 0.000000 20.548905 1.075031 -0.834102 34.845426 -10.387636 -5.043928 93.394521 69.846898 76.819668 0.000000 0.000000 0.000000 
0.099484 0.907392 0.062763 -0.447692 -0.363706 -4.232541 3.107022 -1.675955 -25.715650 -8.005111 5.938709 92.917999 8.136801 17.165558 5.728025 0.000000 0.000000 0.000000 9.776990 -0.372154 1.261445 -0.924805 0.505898 8.379610 -7.810353 -19.004399 -4.202857 0.000000 0.000000 0.000000 -5.890809 0.245271 23.383829 1.434124 -0.944527 5.697051 1.769589 11.486585 -6.032220 -9.217473 6.798503 -9.370790 0.000000 0.000000 0.000000 -24.448015 5.573601 -9.035097 -19.295965 13.106361 -2.991138 -105.660642 -41.904822 53.682512 0.000000 0.000000 0.000000 16.883626 0.711390 0.687362 40.293378 -2.040422 -4.179326 138.096796 73.235071 134.681410 0.000000 0.000000 0.000000 
0.103852 0.949887 0.062097 2.509976 -1.266874 -1.300088 -1.921628 -3.704199 -34.707079 -6.638769 3.662768 71.417291 7.474437 16.479648 12.079095 0.000000 0.000000 0.000000 5.915972 -1.857763 11.535939 -2.157111 0.030761 -3.328202 -3.188313 -9.230056 4.047288 0.000000 0.000000 0.000000 -8.394788 0.786362 20.233969 -1.157237 0.523745 3.765230 1.061089 15.740030 -6.292236 -4.735530 3.776755 -4.909683 0.000000 0.000000 0.000000 -19.424645 7.378463 -9.094352 -16.246845 16.797564 -2.865892 -109.444810 -38.344493 50.974474 0.000000 0.000000 0.000000 14.994466 -0.076234 0.973943 43.794759 0.040677 -3.776534 155.368432 66.234304 156.796223 0.000000 0.000000 0.000000 
0.107973 0.995073 0.068134 3.084015 -1.719314 1.514160 -6.004714 -4.731926 -33.850236 -1.520795 -0.388560 39.314623 3.200332 11.856382 24.665053 0.000000 0.000000 0.000000 4.090989 -2.345939 16.850919 -2.959512 0.309313 0.079527 -0.586681 -5.030310 8.162944 0.000000 0.000000 0.000000 -8.690046 0.748610 15.843584 -1.241956 0.559541 4.888289 -1.470005 18.204086 -8.108048 -1.657277 1.178726 -1.902485 0.000000 0.000000 0.000000 -14.641667 7.923069 -8.003169 -16.659866 21.325326 -3.620247 -107.040596 -33.873019 41.480684 0.000000 0.000000 0.000000 14.778757 -1.191361 0.898709 43.554392 -0.213446 -3.759481 152.450227 61.914625 151.957919 0.000000 0.000000 0.000000 
0.111225 1.020021 0.077006 2.474093 -0.513835 2.402226 -8.416188 -4.687104 -28.851101 2.464146 -0.948114 12.113436 -3.519922 10.232186 52.904492 0.000000 0.000000 0.000000 3.308656 -2.684436 20.043072 -1.679967 0.968286 14.071025 -0.555250 -5.931659 11.417513 0.000000 0.000000 0.000000 -7.987751 0.500264 12.129930 -4.271696 2.230165 9.571469 0.972861 17.443800 -12.777492 -1.278983 -0.013004 1.836366 0.000000 0.000000 0.000000 -14.777834 6.354534 -7.253398 -15.945357 23.753598 -3.630538 -104.554204 -32.458711 38.911797 0.000000 0.000000 0.000000 12.986995 -0.490794 0.782872 44.586793 -4.242766 -4.514679 145.338623 59.088327 136.925280 0.000000 0.000000 0.000000 
0.114419 1.010914 0.085190 0.930086 1.978994 1.766410 -10.017702 -4.289084 -23.870054 2.790179 -0.601586 4.978018 8.563538 19.679911 84.642742 0.000000 0.000000 0.000000 4.215017 -2.930173 19.472708 2.455508 0.134076 35.650394 -3.538235 -13.046439 22.279209 0.000000 0.000000 0.000000 -8.011486 0.398697 10.918716 -0.534234 -0.254714 14.383541 -2.124676 15.855030 -15.746907 -0.327618 -0.628676 0.931661 0.000000 0.000000 0.000000 -15.545710 5.976037 -7.483382 -17.240439 23.288740 -3.841044 -104.457902 -34.887497 41.922262 0.000000 0.000000 0.000000 14.254146 -1.296541 0.478263 43.373859 -6.018614 -4.882222 134.842670 55.865883 117.319506 0.000000 0.000000 0.000000 
0.118908 0.968416 0.088968 0.587580 2.898408 -0.817399 -12.122588 -3.688809 -18.598082 2.904935 -1.386974 15.996458 15.783094 23.021680 74.641273 0.000000 0.000000 0.000000 1.296234 -1.770600 14.663675 6.295705 -2.973991 60.495191 -4.683597 -15.632599 31.464816 0.000000 0.000000 0.000000 -8.607917 0.449912 13.597546 1.616435 -1.727235 14.661217 -2.548826 12.922804 -14.367488 1.185615 -0.815431 -2.609250 0.000000 0.000000 0.000000 -21.023154 3.771881 -8.141692 -17.395035 18.491281 -3.034155 -104.670703 -37.961483 47.182484 0.000000 0.000000 0.000000 14.431364 -1.062975 0.182691 41.928120 -10.343872 -6.086927 121.952922 52.842487 93.870071 0.000000 0.000000 0.000000 
0.122134 0.921795 0.082681 0.562531 4.738900 -3.678340 -13.360319 -2.626481 -12.462319 3.375688 -2.594914 27.104042 5.928094 15.989883 23.895184 0.000000 0.000000 0.000000 -2.283580 -0.495735 5.846248 6.713536 -6.249439 83.449626 -3.027633 -12.523383 22.094366 0.000000 0.000000 0.000000 -8.055875 0.366034 19.485650 1.231478 -1.430203 12.379765 -0.442754 6.224803 -11.886859 -1.185814 1.474976 -7.377260 0.000000 0.000000 0.000000 -29.664435 1.960485 -7.879524 -16.611101 7.528155 -1.713979 -103.691482 -44.274061 56.506859 0.000000 0.000000 0.000000 16.368873 -2.579308 -1.798733 38.790042 -12.435433 -6.328856 103.213506 50.498969 66.161806 0.000000 0.000000 0.000000 
0.121762 0.908607 0.073256 -0.385206 5.805507 -4.124540 -11.918978 -0.428941 -2.470637 4.401437 -2.706994 23.965503 3.940095 -0.026844 -16.084458 0.000000 0.000000 0.000000 -2.943997 0.674643 -9.362441 6.691420 -8.424653 93.365633 -3.874338 -13.461905 18.373697 0.000000 0.000000 0.000000 -5.613234 -0.117927 21.925388 3.545129 -2.602473 8.962827 -2.393243 -1.405699 -8.989701 -0.494792 1.134951 -9.772284 0.000000 0.000000 0.000000 -30.455182 -1.410446 -3.561323 -19.128468 -0.402482 -1.474260 -108.534826 -51.586426 71.018054 0.000000 0.000000 0.000000 19.870387 -2.723752 -3.425324 31.490702 -17.782833 -6.224984 91.548045 45.494189 47.788445 0.000000 0.000000 0.000000 
0.119762 0.934996 0.070497 -2.191376 7.664420 -2.399189 -6.680549 1.375091 9.511360 6.268515 -2.109183 13.837823 2.065988 -11.292276 -20.244905 0.000000 0.000000 0.000000 -2.196989 1.514834 -22.727794 8.141093 -9.824770 81.701960 -6.604956 -17.615191 19.143738 0.000000 0.000000 0.000000 -2.334049 -0.753129 20.908927 4.411082 -2.737438 5.203599 -1.573836 -10.426714 -5.624820 -1.660582 1.495835 -10.524325 0.000000 0.000000 0.000000 -29.448167 -1.547261 0.021579 -22.243486 -7.488347 -1.573990 -121.957594 -56.646991 95.131366 0.000000 0.000000 0.000000 17.782986 -3.266143 -5.031935 28.125089 -21.217093 -6.081289 87.547159 39.455495 35.871453 0.000000 0.000000 0.000000 
0.118717 0.975393 0.076368 -5.268819 6.916310 0.790314 -0.320280 1.226939 16.316744 6.607011 -1.609563 9.090822 -1.153200 -12.677726 -12.537123 0.000000 0.000000 0.000000 2.882709 3.147220 -29.436294 7.999076 -5.298886 54.647986 -9.104546 -20.770136 22.519055 0.000000 0.000000 0.000000 0.725836 -0.910895 15.516204 6.147787 -4.293514 9.705951 1.210848 -14.276841 -12.204517 -5.268586 4.022537 -2.491277 0.000000 0.000000 0.000000 -26.588272 -0.475563 0.896397 -26.561148 -7.902656 -1.774362 -131.125775 -54.517434 107.548079 0.000000 0.000000 0.000000 10.922874 -3.567581 -4.234117 27.409865 -23.780211 -6.287547 87.756715 35.786415 30.128541 0.000000 0.000000 0.000000 
